<svg xmlns="http://www.w3.org/2000/svg" width="30.924" height="34.689" viewBox="0 0 30.924 34.689">
  <g id="ベルのフリーアイコン素材" transform="translate(-27.784 0.001)">
    <path id="パス_54" data-name="パス 54" d="M56.273,367.411H30.218a2.434,2.434,0,0,0,0,4.868H56.273a2.434,2.434,0,1,0,0-4.868Z" transform="translate(0 -342.519)" fill="#707070"/>
    <path id="パス_55" data-name="パス 55" d="M107.723,23.082a6.23,6.23,0,0,1-.9-3.211v-5.34A10.617,10.617,0,0,0,97.7,4.023a2.4,2.4,0,0,0,.6-1.59,2.434,2.434,0,1,0-4.169,1.694,10.6,10.6,0,0,0-8.535,10.4v5.34a6.232,6.232,0,0,1-.9,3.211l-.1.163h23.226Z" transform="translate(-52.962 0)" fill="#707070"/>
    <path id="パス_56" data-name="パス 56" d="M201.658,469.039a3.361,3.361,0,0,0,6.625,0l.022-.126h-6.668Z" transform="translate(-162.073 -437.144)" fill="#707070"/>
  </g>
</svg>
