<svg xmlns="http://www.w3.org/2000/svg" width="34" height="34" viewBox="0 0 34 34">
  <g id="無料の設定歯車アイコン" transform="translate(-0.004)">
    <path id="パス_53" data-name="パス 53" d="M33.171,13.946l-3.709-.171a.872.872,0,0,1-.767-.538L27.931,11.4a.875.875,0,0,1,.163-.924l2.5-2.745a.876.876,0,0,0-.028-1.207L27.484,3.437a.876.876,0,0,0-1.209-.027l-2.743,2.5a.874.874,0,0,1-.925.162L20.769,5.31a.872.872,0,0,1-.538-.768L20.059.834A.875.875,0,0,0,19.187,0H14.823a.875.875,0,0,0-.874.834l-.171,3.708a.872.872,0,0,1-.538.768L11.4,6.073a.873.873,0,0,1-.925-.162l-2.745-2.5a.876.876,0,0,0-1.209.027L3.442,6.521a.874.874,0,0,0-.028,1.207l2.5,2.745a.872.872,0,0,1,.16.924l-.762,1.839a.873.873,0,0,1-.768.538l-3.708.171A.875.875,0,0,0,0,14.819v4.363a.875.875,0,0,0,.834.873l3.708.171a.873.873,0,0,1,.768.538L6.075,22.6a.872.872,0,0,1-.16.924l-2.5,2.743a.875.875,0,0,0,.027,1.209l3.086,3.084a.875.875,0,0,0,1.207.028l2.743-2.5a.875.875,0,0,1,.925-.162l1.839.762a.873.873,0,0,1,.538.769l.171,3.708a.876.876,0,0,0,.874.834h4.364a.875.875,0,0,0,.872-.834l.172-3.708a.873.873,0,0,1,.538-.769l1.839-.762a.875.875,0,0,1,.925.162l2.743,2.5a.877.877,0,0,0,1.209-.028l3.084-3.084A.878.878,0,0,0,30.6,26.27l-2.5-2.743a.873.873,0,0,1-.163-.924l.764-1.839a.871.871,0,0,1,.767-.538l3.709-.171A.874.874,0,0,0,34,19.181V14.819A.873.873,0,0,0,33.171,13.946ZM17,22.553A5.553,5.553,0,1,1,22.557,17,5.554,5.554,0,0,1,17,22.553Z" fill="#707070"/>
  </g>
</svg>
