<svg xmlns="http://www.w3.org/2000/svg" width="136.688" height="106.765" viewBox="0 0 136.688 106.765">
  <g id="グループ_273" data-name="グループ 273" transform="translate(-233.277 -993.737)">
    <path id="パス_136" data-name="パス 136" d="M134,291.674a1.359,1.359,0,0,0-2.133-.325,10.059,10.059,0,0,0-1.668,1.622,47.6,47.6,0,0,0-3.976,6.327c-.964,1.661-1.942,3.316-2.988,4.922a5.424,5.424,0,0,1-1.481,1.481,1.832,1.832,0,0,1-2.894-1.18,3.134,3.134,0,0,1-.122-1.261,25.586,25.586,0,0,1,.721-3.57c1.1-3.538,2.315-7.041,3.442-10.572a41.335,41.335,0,0,0,2.146-9.784,8.674,8.674,0,0,0-.485-3.913c-1.045-2.57-3.934-3.055-5.6-.895a12.109,12.109,0,0,0-1.4,2.428,39.873,39.873,0,0,0-2.309,7.669c-.747,3.293-1.446,6.6-2.22,9.882a13.6,13.6,0,0,1-1.618,4.236,3.106,3.106,0,0,1-1.644,1.392,1.708,1.708,0,0,1-2.372-1.3,3.272,3.272,0,0,1-.158-.941c.055-1.644.081-3.293.225-4.928.407-4.6,1.02-9.182,1.02-13.812a24.708,24.708,0,0,0-.712-6.753,6.737,6.737,0,0,0-1.511-2.909,3.762,3.762,0,0,0-5.994,1.428,14.71,14.71,0,0,0-.785,5.889,93.6,93.6,0,0,0,1.462,12.212,43.809,43.809,0,0,1,.8,7.082,11.227,11.227,0,0,1-.327,2.748,2.22,2.22,0,0,1-2.3,1.706,3.032,3.032,0,0,1-2.654-1.569,20.548,20.548,0,0,1-1.644-3.222,88.371,88.371,0,0,1-2.856-9.609,52.752,52.752,0,0,0-2.831-8.361,8.847,8.847,0,0,0-2.172-3.139,2.183,2.183,0,0,0-2.028-.539,4.447,4.447,0,0,0-3.02,2.48,7.293,7.293,0,0,0-.463,3.9,22.8,22.8,0,0,0,1.665,6.382c1.432,3.475,2.962,6.907,4.473,10.348a53.243,53.243,0,0,1,3.157,8.184,7.748,7.748,0,0,1,.23,3.66c-.5,2.219-2.441,3.075-4.272,1.825a11.5,11.5,0,0,1-1.916-1.687c-1.49-1.611-2.9-3.3-4.4-4.9a9.427,9.427,0,0,0-3.321-2.468,2.943,2.943,0,0,0-2.408-.046,6.43,6.43,0,0,0-2.975,3.079,1.543,1.543,0,0,0-.076,1.063,6.418,6.418,0,0,0,.836,1.942c1.078,1.447,2.227,2.843,3.41,4.2a29.977,29.977,0,0,1,4.044,5.252c.648,1.2,1.323,2.379,1.991,3.566a25.931,25.931,0,0,0,6.987,8.056,10.043,10.043,0,0,0,5.653,2.265c.3.013.6,0,.891-.008l.626,8.542a1.713,1.713,0,0,0,1.812,1.608l15.554-1.217a1.731,1.731,0,0,0,1.557-1.87l-.548-7.475a9.794,9.794,0,0,0,6.871-5.478A32.884,32.884,0,0,0,123,321.164a73.914,73.914,0,0,1,5.177-12.315c1.593-2.957,3.106-5.963,4.593-8.98a17.132,17.132,0,0,0,1.821-5.514A3.369,3.369,0,0,0,134,291.674Z" transform="matrix(0.995, -0.105, 0.105, 0.995, 134.05, 768.48)" fill="#004d9d"/>
    <path id="パス_137" data-name="パス 137" d="M109.1,272.053,101.628,249.9l8.572.1Z" transform="translate(163.461 749.344)" fill="#fbbe46"/>
    <path id="パス_138" data-name="パス 138" d="M119.44,277.52l18.1-15.962-7.875-5.362Z" transform="translate(175.696 749.527)" fill="#fbbe46"/>
    <path id="パス_139" data-name="パス 139" d="M115.783,269.952l3.474-23.847,8.219,1.88Z" transform="translate(169.335 747.632)" fill="#fbbe46"/>
    <path id="パス_140" data-name="パス 140" d="M163.253,263.347c-18.687-1.42-34.856,9.951-36.115,25.395a24.444,24.444,0,0,0,4.178,15.574l-2.481,7.625,7.7-1.657a37.841,37.841,0,0,0,22.159,8.993c18.688,1.42,34.857-9.95,36.115-25.395S181.94,264.767,163.253,263.347Z" transform="translate(175.075 760.604)" fill="#004d9d"/>
    <text id="A" transform="translate(323.595 1062.904)" fill="#fff" font-size="38" font-family="Helvetica"><tspan x="0" y="0">A</tspan></text>
  </g>
</svg>
