<svg xmlns="http://www.w3.org/2000/svg" width="154.241" height="120.475" viewBox="0 0 154.241 120.475">
  <g id="グループ_282" data-name="グループ 282" transform="translate(-494.5 -1479.882)">
    <path id="パス_148" data-name="パス 148" d="M70.468,26.093a1.534,1.534,0,0,0-2.407-.366,11.35,11.35,0,0,0-1.883,1.831A53.712,53.712,0,0,0,61.691,34.7C60.6,36.57,59.5,38.438,58.32,40.25a6.12,6.12,0,0,1-1.671,1.671,2.067,2.067,0,0,1-3.266-1.331,3.537,3.537,0,0,1-.138-1.422,28.872,28.872,0,0,1,.814-4.028c1.245-3.992,2.613-7.945,3.884-11.93a46.643,46.643,0,0,0,2.421-11.04,9.788,9.788,0,0,0-.547-4.415c-1.179-2.9-4.439-3.448-6.317-1.01a13.663,13.663,0,0,0-1.58,2.74,44.993,44.993,0,0,0-2.605,8.654c-.843,3.715-1.632,7.444-2.505,11.151a15.345,15.345,0,0,1-1.826,4.78,3.505,3.505,0,0,1-1.855,1.57,1.927,1.927,0,0,1-2.676-1.461,3.692,3.692,0,0,1-.178-1.062c.062-1.855.091-3.715.253-5.561.459-5.19,1.151-10.361,1.151-15.585a27.88,27.88,0,0,0-.8-7.621,7.6,7.6,0,0,0-1.7-3.283,4.245,4.245,0,0,0-6.763,1.611,16.6,16.6,0,0,0-.886,6.646A105.624,105.624,0,0,0,33.17,23.1a49.436,49.436,0,0,1,.908,7.992,12.669,12.669,0,0,1-.369,3.1,2.505,2.505,0,0,1-2.6,1.925,3.421,3.421,0,0,1-2.995-1.771,23.187,23.187,0,0,1-1.855-3.636A99.723,99.723,0,0,1,23.041,19.87a59.527,59.527,0,0,0-3.195-9.435A9.984,9.984,0,0,0,17.4,6.893a2.464,2.464,0,0,0-2.288-.609,5.018,5.018,0,0,0-3.408,2.8,8.23,8.23,0,0,0-.523,4.4,25.726,25.726,0,0,0,1.878,7.2C14.672,24.607,16.4,28.48,18.1,32.363A60.08,60.08,0,0,1,21.665,41.6a8.743,8.743,0,0,1,.259,4.13c-.562,2.5-2.755,3.47-4.821,2.06a12.982,12.982,0,0,1-2.162-1.9c-1.681-1.817-3.277-3.718-4.966-5.528a10.637,10.637,0,0,0-3.748-2.785,3.321,3.321,0,0,0-2.717-.052A7.255,7.255,0,0,0,.153,40.991a1.741,1.741,0,0,0-.085,1.2,7.242,7.242,0,0,0,.943,2.191c1.217,1.633,2.513,3.208,3.848,4.743a33.828,33.828,0,0,1,4.563,5.926c.731,1.352,1.493,2.685,2.246,4.024a29.261,29.261,0,0,0,7.884,9.091,11.333,11.333,0,0,0,6.379,2.556c.337.015.672,0,1.005-.009l.707,9.638a1.933,1.933,0,0,0,2.045,1.814L47.24,80.793A1.954,1.954,0,0,0,49,78.682l-.618-8.434a11.052,11.052,0,0,0,7.754-6.182,37.106,37.106,0,0,0,1.928-4.7,83.405,83.405,0,0,1,5.842-13.9c1.8-3.337,3.5-6.729,5.183-10.134a19.332,19.332,0,0,0,2.055-6.222A3.8,3.8,0,0,0,70.468,26.093Z" transform="matrix(0.995, -0.105, 0.105, 0.995, 494.5, 1518.636)" fill="#fff"/>
    <path id="パス_149" data-name="パス 149" d="M110.059,274.9l-8.431-25,9.673.115Z" transform="translate(428.77 1236.196)" fill="#fbbe46"/>
    <path id="パス_150" data-name="パス 150" d="M119.44,280.259l20.428-18.012-8.887-6.05Z" transform="translate(444.864 1237.211)" fill="#fbbe46"/>
    <path id="パス_151" data-name="パス 151" d="M115.783,273.014l3.92-26.91,9.275,2.122Z" transform="translate(437.216 1233.777)" fill="#fbbe46"/>
    <path id="パス_152" data-name="パス 152" d="M167.9,263.363c-21.087-1.6-39.332,11.229-40.753,28.656a27.582,27.582,0,0,0,4.714,17.574l-2.8,8.6,8.692-1.87a42.7,42.7,0,0,0,25,10.148c21.088,1.6,39.333-11.227,40.753-28.656S188.988,264.964,167.9,263.363Z" transform="translate(445.141 1250.613)" fill="#fff"/>
    <text id="A" transform="translate(596.417 1557.207)" fill="#2863bc" font-size="42" font-family="Helvetica"><tspan x="0" y="0">A</tspan></text>
  </g>
</svg>
