<svg xmlns="http://www.w3.org/2000/svg" width="23.892" height="35.689" viewBox="0 0 23.892 35.689">
  <g id="人物の無料素材" transform="translate(-84.617)">
    <path id="パス_58" data-name="パス 58" d="M132.6,18.493a9.247,9.247,0,1,0-9.246-9.247A9.246,9.246,0,0,0,132.6,18.493Z" transform="translate(-36.04)" fill="#707070"/>
    <path id="パス_59" data-name="パス 59" d="M108.4,289.518a17.787,17.787,0,0,0-4.012-7.491,1.177,1.177,0,0,0-1.36-.1,12.294,12.294,0,0,1-12.94,0,1.177,1.177,0,0,0-1.36.1,17.789,17.789,0,0,0-4.012,7.491c-1.014,6.088,5.489,8.288,11.841,8.288S109.418,295.605,108.4,289.518Z" transform="translate(0 -262.116)" fill="#707070"/>
  </g>
</svg>
