<svg id="idea" xmlns="http://www.w3.org/2000/svg" width="85.584" height="114.75" viewBox="0 0 85.584 114.75">
  <path id="パス_30" data-name="パス 30" d="M207.39,402.756V380.763a9.591,9.591,0,0,0-9.563-9.563h-20.8a9.591,9.591,0,0,0-9.563,9.563v21.994Z" transform="translate(-144.516 -288.006)" fill="#ced6e0"/>
  <g id="グループ_155" data-name="グループ 155" transform="translate(36.098 83.194)">
    <path id="パス_31" data-name="パス 31" d="M241.875,437.516,239.484,416h-6.694L230.4,437.516Z" transform="translate(-229.444 -405.959)" fill="#f3705a"/>
    <path id="パス_32" data-name="パス 32" d="M236.174,381.241l3.347-3.347-6.694-6.694-6.694,6.694,3.347,3.347Z" transform="translate(-226.133 -371.2)" fill="#f3705a"/>
  </g>
  <path id="パス_33" data-name="パス 33" d="M326.931,401.1l-5.26-22.472a8.551,8.551,0,0,0-6.455-6.216l-16.5-3.347L292.267,401.1Z" transform="translate(-241.347 -286.351)" fill="#344a5e"/>
  <path id="パス_34" data-name="パス 34" d="M266.041,340.267s0,1.2-4.542,3.586a54.456,54.456,0,0,0-5.5,3.108l9.563,9.563s3.586-9.323,3.586-9.563S266.519,342.179,266.041,340.267Z" transform="translate(-213.208 -264.006)" fill="#f3f3f3"/>
  <path id="パス_35" data-name="パス 35" d="M286.178,385.378v-.239c2.391-6.455,7.65-22.95,7.65-22.95l-5.02-2.63,3.108-1.2s-2.63-4.064-5.02-5.5-2.391-3.108-3.825-4.064c0,0-.239,4.542-.717,7.172s-3.586,20.559-4.542,26.058a19.9,19.9,0,0,1-.478,3.108h8.845Z" transform="translate(-229.76 -270.627)" fill="#415a6b"/>
  <path id="パス_36" data-name="パス 36" d="M99.731,401.1l-6.455-32.034-16.734,3.347a8.552,8.552,0,0,0-6.455,6.216L65.067,401.1Z" transform="translate(-65.067 -286.351)" fill="#344a5e"/>
  <path id="パス_37" data-name="パス 37" d="M200.441,340.267s0,1.2,4.542,3.586a54.445,54.445,0,0,1,5.5,3.108l-9.563,9.563s-3.586-9.323-3.586-9.563S199.963,342.179,200.441,340.267Z" transform="translate(-167.689 -264.006)" fill="#f3f3f3"/>
  <path id="パス_38" data-name="パス 38" d="M167.65,385.965v.239h8.606a21.58,21.58,0,0,0-.478-3.108c-.956-5.5-4.064-23.189-4.542-26.058-.478-2.63-.717-7.172-.717-7.172-1.434.956-1.434,2.869-3.825,4.064-2.391,1.434-5.02,5.5-5.02,5.5l3.108,1.2L160,363.015S165.259,379.51,167.65,385.965Z" transform="translate(-138.723 -271.453)" fill="#415a6b"/>
  <path id="パス_39" data-name="パス 39" d="M198.913,81.124a23.487,23.487,0,0,1-9.563,22.233,9.639,9.639,0,0,0-4.064,7.889v1.674a3.268,3.268,0,0,1-3.347,3.347H169.747a3.268,3.268,0,0,1-3.347-3.347v-1.674a10.324,10.324,0,0,0-4.064-7.889,23.268,23.268,0,0,1,16.256-42.075A23.089,23.089,0,0,1,198.913,81.124Z" transform="translate(-132.932 -47.417)" fill="#ffd15c"/>
  <path id="パス_40" data-name="パス 40" d="M234.667,334.933a5.089,5.089,0,0,0,9.562,0Z" transform="translate(-196.656 -259.867)" fill="#344a5e"/>
  <path id="パス_41" data-name="パス 41" d="M213.333,286.933v8.128a3.268,3.268,0,0,0,3.347,3.347h12.192a3.268,3.268,0,0,0,3.347-3.347v-8.128Z" transform="translate(-180.103 -222.625)" fill="#415a6b"/>
  <g id="グループ_156" data-name="グループ 156" transform="translate(31.556 63.352)">
    <path id="パス_42" data-name="パス 42" d="M226.9,282.667H207.54a1.634,1.634,0,0,0-1.674,1.674h0a1.634,1.634,0,0,0,1.674,1.673H226.9a1.634,1.634,0,0,0,1.673-1.673h0A1.634,1.634,0,0,0,226.9,282.667Z" transform="translate(-205.866 -282.667)" fill="#344a5e"/>
    <path id="パス_43" data-name="パス 43" d="M226.9,308.267H207.54a1.634,1.634,0,0,0-1.674,1.673h0a1.634,1.634,0,0,0,1.674,1.674H226.9a1.634,1.634,0,0,0,1.673-1.674h0A1.634,1.634,0,0,0,226.9,308.267Z" transform="translate(-205.866 -302.529)" fill="#344a5e"/>
  </g>
  <g id="グループ_157" data-name="グループ 157" transform="translate(5.737)">
    <path id="パス_44" data-name="パス 44" d="M340.781,253.462l-4.064-4.064a2.367,2.367,0,1,1,3.347-3.347l4.064,4.064a2.311,2.311,0,0,1,0,3.347A2.872,2.872,0,0,1,340.781,253.462Z" transform="translate(-281.015 -190.349)" fill="#ffd15c"/>
    <path id="パス_45" data-name="パス 45" d="M382.528,158.38h-5.737a2.391,2.391,0,0,1,0-4.781h5.737a2.4,2.4,0,0,1,2.391,2.391A2.561,2.561,0,0,1,382.528,158.38Z" transform="translate(-310.809 -119.174)" fill="#ffd15c"/>
    <path id="パス_46" data-name="パス 46" d="M344.129,48.864l-4.064,4.064a2.367,2.367,0,0,1-3.347-3.347l4.064-4.064a2.367,2.367,0,0,1,3.347,3.347Z" transform="translate(-281.016 -34.759)" fill="#ffd15c"/>
    <path id="パス_47" data-name="パス 47" d="M250.114,2.391V8.128a2.391,2.391,0,1,1-4.781,0V2.391a2.391,2.391,0,1,1,4.781,0Z" transform="translate(-210.669)" fill="#ffd15c"/>
    <path id="パス_48" data-name="パス 48" d="M140.6,45.517l4.064,4.064a2.367,2.367,0,1,1-3.347,3.347l-4.064-4.064a2.367,2.367,0,0,1,3.347-3.347Z" transform="translate(-126.254 -34.759)" fill="#ffd15c"/>
    <path id="パス_49" data-name="パス 49" d="M93.057,154.667h5.738a2.391,2.391,0,0,1,0,4.781H93.057a2.4,2.4,0,0,1-2.391-2.391A2.561,2.561,0,0,1,93.057,154.667Z" transform="translate(-90.666 -120.003)" fill="#ffd15c"/>
    <path id="パス_50" data-name="パス 50" d="M137.251,250.115l4.064-4.064a2.367,2.367,0,0,1,3.347,3.347l-4.064,4.064a2.367,2.367,0,0,1-3.347-3.347Z" transform="translate(-126.254 -190.349)" fill="#ffd15c"/>
  </g>
  <path id="パス_51" data-name="パス 51" d="M224.975,139.235,227.365,128h-5.5l12.192-13.866-2.391,11.236h5.5Z" transform="translate(-186.725 -88.553)" fill="#fff"/>
</svg>
