<svg xmlns="http://www.w3.org/2000/svg" width="174" height="174" viewBox="0 0 174 174">
  <g id="グループ_180" data-name="グループ 180" transform="translate(-375 -364)">
    <circle id="楕円形_72" data-name="楕円形 72" cx="87" cy="87" r="87" transform="translate(375 364)" fill="#fff"/>
    <path id="パス_9" data-name="パス 9" d="M120.607,591.674a4.765,4.765,0,0,1-4.752-4.752V541.436a4.766,4.766,0,0,1,4.752-4.752h45.487a4.766,4.766,0,0,1,4.752,4.752V557.2c5.693-2.386,11.935.918,11.843,6.609.459,6.241-6.7,10.739-11.933,6.7l.089,16.415a4.766,4.766,0,0,1-4.752,4.752l-16.338.032a7.8,7.8,0,0,0-6.422-12.544c-7.458-.138-9.875,8.928-6.491,12.544Z" transform="translate(293.608 -137.592)" fill="#e6e6e6"/>
    <path id="パス_10" data-name="パス 10" d="M170.845,699.844a4.766,4.766,0,0,1-4.752,4.752H120.607a4.766,4.766,0,0,1-4.752-4.752V654.358a4.766,4.766,0,0,1,4.752-4.752H136.37c-2.386-5.693.918-11.935,6.609-11.843,6.241-.459,10.739,6.7,6.7,11.932l16.414-.089a4.766,4.766,0,0,1,4.752,4.752l.031,16.338a7.8,7.8,0,0,0-12.543,6.422c-.138,7.458,8.928,9.875,12.543,6.491Z" transform="translate(293.61 -196.322)" fill="#7bc6ed"/>
    <path id="パス_11" data-name="パス 11" d="M246.171,541.436a4.766,4.766,0,0,1,4.752-4.752H296.41a4.766,4.766,0,0,1,4.752,4.752v45.487a4.765,4.765,0,0,1-4.752,4.752H280.646c2.386,5.694-.918,11.935-6.609,11.843-6.241.459-10.739-6.7-6.7-11.932l-16.415.089a4.765,4.765,0,0,1-4.752-4.752l-.032-16.338a7.8,7.8,0,0,0,12.544-6.422c.138-7.458-8.928-9.875-12.544-6.491Z" transform="translate(217.901 -137.594)" fill="#2863bc"/>
  </g>
</svg>
