<svg id="idea" xmlns="http://www.w3.org/2000/svg" width="104.584" height="140.226" viewBox="0 0 104.584 140.226">
  <path id="パス_30" data-name="パス 30" d="M216.253,409.762V382.885A11.72,11.72,0,0,0,204.567,371.2H179.152a11.72,11.72,0,0,0-11.686,11.686v26.876Z" transform="translate(-139.421 -269.536)" fill="#ced6e0"/>
  <g id="グループ_155" data-name="グループ 155" transform="translate(44.112 101.664)">
    <path id="パス_31" data-name="パス 31" d="M244.423,442.292,241.5,416h-8.18L230.4,442.292Z" transform="translate(-229.231 -403.73)" fill="#f3705a"/>
    <path id="パス_32" data-name="パス 32" d="M238.4,383.47l4.09-4.09-8.18-8.18-8.18,8.18,4.09,4.09Z" transform="translate(-226.133 -371.2)" fill="#f3705a"/>
  </g>
  <path id="パス_33" data-name="パス 33" d="M334.627,408.213,328.2,380.752a10.45,10.45,0,0,0-7.888-7.6l-20.157-4.09-7.887,39.146Z" transform="translate(-230.042 -267.988)" fill="#344a5e"/>
  <path id="パス_34" data-name="パス 34" d="M268.27,340.267s0,1.461-5.551,4.382a66.536,66.536,0,0,0-6.719,3.8l11.686,11.686s4.382-11.393,4.382-11.686S268.854,342.6,268.27,340.267Z" transform="translate(-203.708 -247.075)" fill="#f3f3f3"/>
  <path id="パス_35" data-name="パス 35" d="M288.142,393.5v-.292c2.921-7.888,9.348-28.045,9.348-28.045l-6.135-3.213,3.8-1.461s-3.213-4.966-6.135-6.719-2.921-3.8-4.674-4.966c0,0-.292,5.551-.876,8.764s-4.382,25.124-5.551,31.843a24.32,24.32,0,0,1-.584,3.8h10.809Z" transform="translate(-219.198 -253.272)" fill="#415a6b"/>
  <path id="パス_36" data-name="パス 36" d="M107.426,408.213l-7.888-39.146-20.449,4.09a10.451,10.451,0,0,0-7.888,7.6l-6.135,27.461Z" transform="translate(-65.067 -267.988)" fill="#344a5e"/>
  <path id="パス_37" data-name="パス 37" d="M201.131,340.267s0,1.461,5.551,4.382a66.534,66.534,0,0,1,6.719,3.8l-11.685,11.686s-4.382-11.393-4.382-11.686S200.547,342.6,201.131,340.267Z" transform="translate(-161.108 -247.075)" fill="#f3f3f3"/>
  <path id="パス_38" data-name="パス 38" d="M169.348,393.979v.292h10.517a26.371,26.371,0,0,0-.584-3.8c-1.169-6.719-4.966-28.337-5.551-31.843-.584-3.213-.876-8.764-.876-8.764-1.753,1.169-1.753,3.506-4.674,4.966-2.921,1.753-6.135,6.719-6.135,6.719l3.8,1.461L160,365.934S166.427,386.091,169.348,393.979Z" transform="translate(-134 -254.045)" fill="#415a6b"/>
  <path id="パス_39" data-name="パス 39" d="M209.209,85.567a28.7,28.7,0,0,1-11.686,27.169,11.778,11.778,0,0,0-4.966,9.641v2.045a3.994,3.994,0,0,1-4.09,4.09h-14.9a3.994,3.994,0,0,1-4.09-4.09v-2.045a12.615,12.615,0,0,0-4.966-9.641A28.434,28.434,0,0,1,184.378,61.32C196.939,62.488,207.456,72.713,209.209,85.567Z" transform="translate(-128.579 -44.376)" fill="#ffd15c"/>
  <path id="パス_40" data-name="パス 40" d="M234.667,334.933a6.218,6.218,0,0,0,11.685,0Z" transform="translate(-188.217 -243.202)" fill="#344a5e"/>
  <path id="パス_41" data-name="パス 41" d="M213.333,286.933v9.933a3.994,3.994,0,0,0,4.09,4.09h14.9a3.994,3.994,0,0,0,4.09-4.09v-9.933Z" transform="translate(-172.726 -208.348)" fill="#415a6b"/>
  <g id="グループ_156" data-name="グループ 156" transform="translate(38.562 77.416)">
    <path id="パス_42" data-name="パス 42" d="M231.574,282.667H207.911a2,2,0,0,0-2.045,2.045h0a2,2,0,0,0,2.045,2.045h23.663a2,2,0,0,0,2.045-2.045h0A2,2,0,0,0,231.574,282.667Z" transform="translate(-205.866 -282.667)" fill="#344a5e"/>
    <path id="パス_43" data-name="パス 43" d="M231.574,308.267H207.911a2,2,0,0,0-2.045,2.045h0a2,2,0,0,0,2.045,2.045h23.663a2,2,0,0,0,2.045-2.045h0A2,2,0,0,0,231.574,308.267Z" transform="translate(-205.866 -301.256)" fill="#344a5e"/>
  </g>
  <g id="グループ_157" data-name="グループ 157" transform="translate(7.011)">
    <path id="パス_44" data-name="パス 44" d="M341.842,255.266l-4.966-4.966a2.892,2.892,0,0,1,4.09-4.09l4.966,4.966a2.824,2.824,0,0,1,0,4.09A3.509,3.509,0,0,1,341.842,255.266Z" transform="translate(-268.808 -178.142)" fill="#ffd15c"/>
    <path id="パス_45" data-name="パス 45" d="M384.333,159.442h-7.011a2.921,2.921,0,0,1,0-5.843h7.011a2.928,2.928,0,0,1,2.921,2.921A3.13,3.13,0,0,1,384.333,159.442Z" transform="translate(-296.692 -111.532)" fill="#ffd15c"/>
    <path id="パス_46" data-name="パス 46" d="M345.933,49.766l-4.966,4.966a2.892,2.892,0,0,1-4.09-4.09l4.966-4.966a2.892,2.892,0,0,1,4.09,4.09Z" transform="translate(-268.809 -32.53)" fill="#ffd15c"/>
    <path id="パス_47" data-name="パス 47" d="M251.176,2.921V9.933a2.921,2.921,0,1,1-5.843,0V2.921a2.921,2.921,0,1,1,5.843,0Z" transform="translate(-202.973)" fill="#ffd15c"/>
    <path id="パス_48" data-name="パス 48" d="M141.5,45.676l4.966,4.966a2.892,2.892,0,1,1-4.09,4.09l-4.966-4.966a2.892,2.892,0,0,1,4.09-4.09Z" transform="translate(-123.972 -32.53)" fill="#ffd15c"/>
    <path id="パス_49" data-name="パス 49" d="M93.587,154.667H100.6a2.921,2.921,0,0,1,0,5.843H93.587a2.928,2.928,0,0,1-2.921-2.921A3.13,3.13,0,0,1,93.587,154.667Z" transform="translate(-90.666 -112.307)" fill="#ffd15c"/>
    <path id="パス_50" data-name="パス 50" d="M137.41,251.176l4.966-4.966a2.892,2.892,0,1,1,4.09,4.09l-4.966,4.966a2.892,2.892,0,0,1-4.09-4.09Z" transform="translate(-123.972 -178.142)" fill="#ffd15c"/>
  </g>
  <path id="パス_51" data-name="パス 51" d="M225.665,144.807l2.921-13.73h-6.719l14.9-16.944-2.921,13.731h6.719Z" transform="translate(-178.923 -82.874)" fill="#fff"/>
</svg>
