<svg xmlns="http://www.w3.org/2000/svg" width="38" height="54" viewBox="0 0 38 54">
  <g id="グループ_193" data-name="グループ 193" transform="translate(0.405 0)">
    <g id="合体_5" data-name="合体 5" transform="translate(-0.405 0)" fill="#f0e825">
      <path d="M 25.5 47.5 L 12.5 47.5 L 12.5 36.2380485534668 L 12.5 35.28113174438477 L 11.63222980499268 34.87779998779297 C 8.648639678955078 33.49105072021484 6.120480060577393 31.29667091369629 4.321060180664062 28.53186988830566 C 2.475509881973267 25.69618988037109 1.5 22.40002059936523 1.5 18.99970054626465 C 1.5 14.32548999786377 3.320349931716919 9.930959701538086 6.625720024108887 6.625649929046631 C 9.931090354919434 3.320319890975952 14.32569980621338 1.5 19 1.5 C 23.67457008361816 1.5 28.06926918029785 3.320319890975952 31.37454986572266 6.625629901885986 C 34.67974853515625 9.930870056152344 36.5 14.32540035247803 36.5 18.99970054626465 C 36.5 22.4000301361084 35.52449035644531 25.69623947143555 33.67893981933594 28.53195953369141 C 31.8794994354248 31.29681968688965 29.35133934020996 33.49124145507812 26.36776924133301 34.87797927856445 L 25.5 35.28131103515625 L 25.5 36.23823165893555 L 25.5 47.5 Z" stroke="none"/>
      <path d="M 24 46 L 24 36.23823165893555 L 24 34.32439041137695 L 25.73553085327148 33.51773071289062 C 28.46381950378418 32.24964141845703 30.77586936950684 30.24266052246094 32.4217414855957 27.7137508392334 C 34.10845184326172 25.12210083007812 35 22.10882949829102 35 18.99970054626465 C 35 14.72605991363525 33.33576965332031 10.70820999145508 30.31388092041016 7.68628978729248 C 27.29191970825195 4.664289951324463 23.27389907836914 3 19 3 C 14.72636032104492 3 10.70843029022217 4.664299964904785 7.686369895935059 7.686319828033447 C 4.66431999206543 10.70831966400146 3 14.72616004943848 3 18.99970054626465 C 3 22.10881042480469 3.891540050506592 25.12203979492188 5.578249931335449 27.71364974975586 C 7.224110126495361 30.24250030517578 9.53617000579834 32.24945831298828 12.26445960998535 33.51755142211914 L 14 34.32421112060547 L 14 36.2380485534668 L 14 46 L 24 46 M 27 49 L 11 49 L 11 36.2380485534668 C 4.503660202026367 33.21860885620117 0 26.63570022583008 0 18.99970054626465 C 0 8.506710052490234 8.506839752197266 -3.552713678800501e-15 19 -3.552713678800501e-15 C 29.49390029907227 -3.552713678800501e-15 38 8.506710052490234 38 18.99970054626465 C 38 26.63570022583008 33.49634170532227 33.21878051757812 27 36.23823165893555 L 27 49 Z" stroke="none" fill="#707070"/>
    </g>
    <ellipse id="楕円形_17" data-name="楕円形 17" cx="5.5" cy="2.5" rx="5.5" ry="2.5" transform="translate(13.595 49)" fill="#f0e825"/>
    <line id="線_7" data-name="線 7" x1="13" transform="translate(12.5 38.5)" fill="none" stroke="#707070" stroke-width="3"/>
    <line id="線_8" data-name="線 8" y1="2" x2="13" transform="translate(12.5 41.5)" fill="none" stroke="#707070" stroke-width="1"/>
    <line id="線_9" data-name="線 9" y1="2" x2="13" transform="translate(12.5 44.5)" fill="none" stroke="#707070" stroke-width="1"/>
    <line id="線_10" data-name="線 10" y2="11" transform="translate(14.5 26.5)" fill="none" stroke="#707070" stroke-width="1"/>
    <line id="線_11" data-name="線 11" y2="11" transform="translate(22.5 26.5)" fill="none" stroke="#707070" stroke-width="1"/>
    <circle id="楕円形_18" data-name="楕円形 18" cx="1.5" cy="1.5" r="1.5" transform="translate(12.595 25)" fill="#f0e825"/>
    <circle id="楕円形_19" data-name="楕円形 19" cx="1.5" cy="1.5" r="1.5" transform="translate(20.595 25)" fill="#f0e825"/>
  </g>
</svg>
