<svg xmlns="http://www.w3.org/2000/svg" width="126" height="39" viewBox="0 0 126 39">
  <g id="グループ_179" data-name="グループ 179" transform="translate(-41.946 -22.748)">
    <circle id="楕円形_96" data-name="楕円形 96" cx="19.5" cy="19.5" r="19.5" transform="translate(41.946 22.748)" fill="#fff"/>
    <path id="パス_16" data-name="パス 16" d="M116.911,548.9a1.059,1.059,0,0,1-1.056-1.056V537.74a1.059,1.059,0,0,1,1.056-1.056h10.108a1.059,1.059,0,0,1,1.056,1.056v3.5a1.789,1.789,0,0,1,2.632,1.469,1.67,1.67,0,0,1-2.652,1.489l.02,3.648a1.059,1.059,0,0,1-1.056,1.056l-3.631.007a1.734,1.734,0,0,0-1.427-2.787,1.77,1.77,0,0,0-1.442,2.787Z" transform="translate(-66.197 -505.886)" fill="#ededed"/>
    <path id="パス_17" data-name="パス 17" d="M128.075,651.542a1.059,1.059,0,0,1-1.056,1.056H116.911a1.059,1.059,0,0,1-1.056-1.056V641.434a1.059,1.059,0,0,1,1.056-1.056h3.5a1.788,1.788,0,0,1,1.469-2.632,1.67,1.67,0,0,1,1.489,2.651l3.648-.02a1.059,1.059,0,0,1,1.056,1.056l.007,3.631a1.734,1.734,0,0,0-2.787,1.427,1.77,1.77,0,0,0,2.787,1.443Z" transform="translate(-66.196 -597.538)" fill="#a8a8a8"/>
    <path id="パス_18" data-name="パス 18" d="M246.146,537.74a1.059,1.059,0,0,1,1.056-1.056H257.31a1.059,1.059,0,0,1,1.056,1.056v10.108a1.059,1.059,0,0,1-1.056,1.056h-3.5a1.789,1.789,0,0,1-1.469,2.632,1.67,1.67,0,0,1-1.489-2.652l-3.648.02a1.059,1.059,0,0,1-1.056-1.056l-.007-3.631a1.734,1.734,0,0,0,2.787-1.427,1.77,1.77,0,0,0-2.787-1.442Z" transform="translate(-184.353 -505.886)" fill="#707070"/>
    <text id="puzzle" transform="translate(91.946 48.748)" fill="#fffcfc" font-size="21" font-family="AndaleMono, Andale Mono"><tspan x="0" y="0">puzzle</tspan></text>
  </g>
</svg>
