<svg xmlns="http://www.w3.org/2000/svg" width="136.508" height="140.89" viewBox="0 0 136.508 140.89">
  <g id="グループ_275" data-name="グループ 275" transform="translate(-440.826 -388.261)">
    <path id="パス_153" data-name="パス 153" d="M553.872,477.415c-1.028-2.4-2.166-4.958-3.452-7.727a28.587,28.587,0,1,0-31.22.368c-5.727,11.544-15.658,33.706-10.633,39.5h50.826s2.835-.018,2.4-6.507c3.046,3.6,5.7,5.759,7.2,4.758C573.66,504.68,560.951,486.729,553.872,477.415Z" transform="translate(6.856 3.087)" fill="#fff" stroke="#004d9d" stroke-linecap="round" stroke-linejoin="bevel" stroke-width="1"/>
    <path id="パス_154" data-name="パス 154" d="M481.353,418.047l13.723-23.22-10.223-2.977Z" transform="translate(4.247 0.381)" fill="#fbbe46"/>
    <path id="パス_155" data-name="パス 155" d="M473.257,415.648,468.708,389.1l9.385-.842Z" transform="translate(2.905 0)" fill="#fbbe46"/>
    <path id="パス_156" data-name="パス 156" d="M498.49,445.935a28.582,28.582,0,1,0-43.9,24.122c-5.727,11.544-15.658,33.706-10.633,39.5h50.826s9.54-.006-8.974-39.873A28.552,28.552,0,0,0,498.49,445.935Z" transform="translate(0 3.087)" fill="#fff" stroke="#004d9d" stroke-linecap="round" stroke-linejoin="bevel" stroke-width="1"/>
    <path id="パス_157" data-name="パス 157" d="M504.2,517.523l-8.984-8.366.092-.2c-.345-5.8-8.113-3.98-8.113-3.98l-.891-.765c-2-5.293-7.456-13.137-13.094-19.089-6.223-6.57-13.488-11.35-17.975-12.152-1.5-.267-1.481-.374-2.217.323-2.946,2.79-.6,12.777,7.7,21.537,5.871,6.2,14.855,12.381,20.651,14.478l-.059.069,1.186,1.161c2.872,12.112,8.51,7.7,8.51,7.7h0a2.167,2.167,0,0,0,2.712-1.278l-.229.056.168-.073a2.4,2.4,0,0,0,2.763-1.417l-.055.013.021-.055a27.205,27.205,0,0,0,5.12,3.734C504.707,520.889,504.2,517.523,504.2,517.523Zm-12.841.019-.033.008.094-.2Zm2.911-6.345.046-.1.031.144Z" transform="translate(1.112 8.966)" fill="#fff" stroke="#004d9d" stroke-linecap="round" stroke-linejoin="bevel" stroke-width="1"/>
    <ellipse id="楕円形_161" data-name="楕円形 161" cx="6.112" cy="5.821" rx="6.112" ry="5.821" transform="translate(454.721 478.298)" fill="#fff"/>
    <ellipse id="楕円形_162" data-name="楕円形 162" cx="6.112" cy="5.821" rx="6.112" ry="5.821" transform="translate(454.206 478.298)" fill="#fff"/>
    <ellipse id="楕円形_163" data-name="楕円形 163" cx="7.334" cy="6.985" rx="7.334" ry="6.985" transform="translate(463.385 482.955)" fill="#fff"/>
    <ellipse id="楕円形_164" data-name="楕円形 164" cx="6.112" cy="5.821" rx="6.112" ry="5.821" transform="translate(466.945 497.555)" fill="#fff"/>
    <path id="パス_158" data-name="パス 158" d="M480.122,489.881a5.534,5.534,0,0,1-5.574,5.84c-3.376,0-6.65-2.625-6.65-5.84a6.119,6.119,0,0,1,12.224,0Z" transform="translate(2.819 10.164)" fill="#fff"/>
    <g id="グループ_274" data-name="グループ 274" transform="translate(506.181 412.777)">
      <path id="パス_159" data-name="パス 159" d="M499.96,428.971s2.154-15.1,16.433-18.546" transform="translate(-499.96 -410.425)" fill="none" stroke="#fbbe46" stroke-linecap="round" stroke-linejoin="round" stroke-width="2"/>
      <path id="パス_160" data-name="パス 160" d="M505.043,430.56s1.723-12.078,13.148-14.836" transform="translate(-499.421 -409.863)" fill="none" stroke="#fbbe46" stroke-linecap="round" stroke-linejoin="round" stroke-width="2"/>
    </g>
    <path id="パス_161" data-name="パス 161" d="M491.639,508.313a3.32,3.32,0,0,1-3.344,3.5c-2.025,0-3.99-1.575-3.99-3.5a3.671,3.671,0,0,1,7.333,0Z" transform="translate(4.56 12.367)" fill="#fff"/>
    <path id="パス_162" data-name="パス 162" d="M489.689,511.88a1.993,1.993,0,0,1-2.008,2.1,2.336,2.336,0,0,1-2.394-2.1,2.2,2.2,0,0,1,4.4,0Z" transform="translate(4.664 12.893)" fill="#fff"/>
  </g>
</svg>
