<svg xmlns="http://www.w3.org/2000/svg" width="124.483" height="127.549" viewBox="0 0 124.483 127.549">
  <g id="グループ_259" data-name="グループ 259" transform="translate(-305.978 -389.047)">
    <path id="パス_123" data-name="パス 123" d="M414.926,472.065c-.93-2.169-1.959-4.482-3.122-6.987a25.844,25.844,0,1,0-28.224.334c-5.179,10.436-14.156,30.473-9.614,35.714h45.951s2.564-.016,2.175-5.882c2.753,3.259,5.156,5.206,6.5,4.3C432.816,496.713,421.325,480.485,414.926,472.065Z" fill="#004d9d" stroke="#fff" stroke-linecap="round" stroke-linejoin="bevel" stroke-width="2"/>
    <path id="パス_124" data-name="パス 124" d="M348.885,412.423l10.634-17.994-7.922-2.307Z" fill="#fbbe46"/>
    <path id="パス_125" data-name="パス 125" d="M341.572,410.27l-3.525-20.57,7.273-.653Z" fill="#fbbe46"/>
    <path id="パス_126" data-name="パス 126" d="M358.658,443.6a25.84,25.84,0,1,0-39.692,21.809c-5.178,10.436-14.156,30.473-9.613,35.714H355.3s8.624-.005-8.114-36.048A25.814,25.814,0,0,0,358.658,443.6Z" fill="#004d9d" stroke="#fff" stroke-linecap="round" stroke-linejoin="bevel" stroke-width="2"/>
    <path id="パス_127" data-name="パス 127" d="M364.827,513.641l-8.123-7.564.084-.18c-.312-5.246-7.335-3.6-7.335-3.6l-.806-.692c-1.807-4.785-6.742-11.876-11.839-17.258-5.625-5.94-12.194-10.26-16.25-10.985-1.352-.242-1.339-.339-2.005.292-2.663,2.522-.538,11.55,6.963,19.47,5.308,5.605,13.43,11.193,18.67,13.089l-.053.062,1.072,1.05c2.6,10.95,7.693,6.964,7.693,6.964h0a1.959,1.959,0,0,0,2.452-1.155l-.206.051.152-.065a2.174,2.174,0,0,0,2.5-1.282l-.05.012.019-.05a24.592,24.592,0,0,0,4.63,3.376C365.284,516.684,364.827,513.641,364.827,513.641Zm-11.61.017-.029.007.084-.182Zm2.632-5.737.042-.09.028.13Z" fill="#004d9d" stroke="#fff" stroke-linecap="round" stroke-linejoin="round" stroke-width="2"/>
    <ellipse id="楕円形_155" data-name="楕円形 155" cx="5.526" cy="5.262" rx="5.526" ry="5.262" transform="translate(319.088 470.072)" fill="#fff"/>
    <ellipse id="楕円形_156" data-name="楕円形 156" cx="6.631" cy="6.315" rx="6.631" ry="6.315" transform="translate(318.462 469.02)" fill="#004d9d"/>
    <ellipse id="楕円形_157" data-name="楕円形 157" cx="6.631" cy="6.315" rx="6.631" ry="6.315" transform="translate(326.92 474.282)" fill="#004d9d"/>
    <ellipse id="楕円形_158" data-name="楕円形 158" cx="5.526" cy="5.262" rx="5.526" ry="5.262" transform="translate(330.139 487.482)" fill="#fff"/>
    <path id="パス_128" data-name="パス 128" d="M342.774,488.518a5,5,0,0,1-5.039,5.28c-3.052,0-6.012-2.373-6.012-5.28a5.532,5.532,0,0,1,11.051,0Z" fill="#004d9d"/>
    <path id="パス_129" data-name="パス 129" d="M340.182,492.174a5,5,0,0,1-5.04,5.28c-3.051,0-6.012-2.374-6.012-5.28a5.533,5.533,0,0,1,11.052,0Z" fill="#004d9d"/>
    <path id="パス_130" data-name="パス 130" d="M341.944,494.378a5,5,0,0,1-5.04,5.28c-3.051,0-6.011-2.374-6.011-5.28a5.532,5.532,0,0,1,11.051,0Z" fill="#004d9d"/>
    <path id="パス_131" data-name="パス 131" d="M352.087,493.788a6,6,0,0,1-6.047,6.335c-3.662,0-7.215-2.848-7.215-6.335a6.639,6.639,0,0,1,13.262,0Z" fill="#004d9d"/>
    <g id="グループ_258" data-name="グループ 258">
      <path id="パス_132" data-name="パス 132" d="M364.914,425.893s1.669-11.7,12.736-14.371" fill="none" stroke="#fbbe46" stroke-linecap="round" stroke-linejoin="round" stroke-width="2"/>
      <path id="パス_133" data-name="パス 133" d="M369.272,427.561s1.335-9.36,10.188-11.5" fill="none" stroke="#fbbe46" stroke-linecap="round" stroke-linejoin="round" stroke-width="2"/>
    </g>
    <path id="パス_134" data-name="パス 134" d="M357.012,508.162a3,3,0,0,1-3.024,3.168,3.52,3.52,0,0,1-3.607-3.168,3.319,3.319,0,0,1,6.631,0Z" fill="#004d9d"/>
    <path id="パス_135" data-name="パス 135" d="M354.918,512.089a1.8,1.8,0,0,1-1.814,1.9,2.112,2.112,0,0,1-2.164-1.9,1.991,1.991,0,0,1,3.978,0Z" fill="#004d9d"/>
  </g>
</svg>
