<svg id="サーチアイコン" xmlns="http://www.w3.org/2000/svg" width="18.984" height="18.984" viewBox="0 0 18.984 18.984">
  <path id="パス_57" data-name="パス 57" d="M18.366,15.705s-2.541-2.223-3.149-2.83c-.892-.888-1.249-1.315-.934-2.037a7.526,7.526,0,1,0-3.443,3.442c.722-.315,1.15.042,2.037.935.607.608,2.829,3.149,2.829,3.149a1.594,1.594,0,0,0,2.572-.089A1.593,1.593,0,0,0,18.366,15.705Zm-7.759-5.1a4.356,4.356,0,1,1,0-6.16A4.358,4.358,0,0,1,10.607,10.605Z" transform="translate(-0.002 -0.001)" fill="#2863bc"/>
</svg>
