<svg xmlns="http://www.w3.org/2000/svg" width="162.788" height="144.363" viewBox="0 0 162.788 144.363">
  <g id="グループ_280" data-name="グループ 280" transform="translate(-210.438 -190.245)">
    <g id="グループ_276" data-name="グループ 276">
      <path id="パス_39" data-name="パス 39" d="M284.2,245.936c-.058-1.865-.81-7.276-2.295-8.406a13.979,13.979,0,1,1,16.209,0,5.783,5.783,0,0,0-2.439,4.733l-.115,4.225" fill="#fbbe46"/>
      <path id="パス_41" data-name="パス 41" d="M284.2,245.727V250.6a1.961,1.961,0,0,0,1.912,2.008q.048,0,.1,0h7.315a1.961,1.961,0,0,0,2.009-1.912v-4.973Z" fill="#2e4757"/>
      <g id="グループ_156" data-name="グループ 156">
        <path id="パス_42" data-name="パス 42" d="M295.818,245.153H284.2a.981.981,0,0,0-1,.956.4.4,0,0,0,0,.049h0a.981.981,0,0,0,.956,1h11.664s.991-.415,1-.957v-.047h0a.982.982,0,0,0-.956-1.005Z" fill="#24394b"/>
        <path id="パス_43" data-name="パス 43" d="M295.818,248.6H284.2a.981.981,0,0,0-1,.956.382.382,0,0,0,0,.048h0a.979.979,0,0,0,.955,1h11.665a.98.98,0,0,0,1-.956V249.6h0a.981.981,0,0,0-.957-1Z" fill="#24394b"/>
      </g>
      <path id="パス_51" data-name="パス 51" d="M287.214,234.375l1.434-6.741h-3.3l7.315-8.32-1.434,6.742h3.3Z" fill="#fff"/>
    </g>
    <g id="グループ_277" data-name="グループ 277">
      <path id="パス_163" data-name="パス 163" d="M281.365,209.228l-8.342-11.32,4.928-1.514Z" fill="#fbbe46"/>
      <path id="パス_164" data-name="パス 164" d="M299.271,209.888l7.442-12.462-5.494-1.627Z" fill="#fbbe46"/>
      <path id="パス_165" data-name="パス 165" d="M290.115,204.971l-2.383-14.3,5.053-.43Z" fill="#fbbe46"/>
    </g>
    <path id="パス_166" data-name="パス 166" d="M371.663,271.108c-2.679-1.84-7.987,4.034-12.992,11.009a27.568,27.568,0,1,0-39.737,11.562c-.458.922-.945,1.92-1.448,2.969-5.637-9.352-16.986-26.841-21.351-23.842-4.146,2.848,12.63,24.491,17.984,31.2-4.719,10.871-9.023,23.634-5.439,27.769h49.014s7.607-.009-4.446-28.93C358.044,296.867,375.929,274.039,371.663,271.108ZM349.04,293.323a27.77,27.77,0,0,0,4.879-4.175c-1.473,2.294-2.81,4.471-3.9,6.3C349.7,294.749,349.375,294.045,349.04,293.323Z" fill="#fff" stroke="#004d9d" stroke-linecap="round" stroke-linejoin="bevel" stroke-width="2"/>
    <g id="グループ_278" data-name="グループ 278">
      <circle id="楕円形_165" data-name="楕円形 165" cx="27.154" cy="27.154" r="27.154" transform="translate(306.745 244.115)" stroke-width="2" stroke="#004d9d" stroke-linecap="round" stroke-linejoin="bevel" fill="#fff"/>
    </g>
    <rect id="長方形_152" data-name="長方形 152" width="28.115" height="19.666" transform="translate(320.067 285.828)" fill="#fff"/>
    <path id="パス_167" data-name="パス 167" d="M287.531,272.942c-2.679-1.84-7.988,4.034-12.992,11.009A27.568,27.568,0,1,0,234.8,295.513c-.458.922-.945,1.921-1.448,2.969-5.637-9.352-16.986-26.841-21.351-23.842-4.146,2.848,12.63,24.492,17.984,31.2-4.719,10.871-9.023,23.634-5.439,27.769h49.014s7.607-.009-4.446-28.93C273.912,298.7,291.8,275.873,287.531,272.942Zm-22.623,22.215a27.767,27.767,0,0,0,4.879-4.175c-1.473,2.294-2.81,4.471-3.9,6.3C265.566,296.583,265.243,295.879,264.908,295.157Z" fill="#fff" stroke="#004d9d" stroke-linecap="round" stroke-linejoin="bevel" stroke-width="2"/>
    <g id="グループ_279" data-name="グループ 279">
      <circle id="楕円形_166" data-name="楕円形 166" cx="27.154" cy="27.154" r="27.154" transform="translate(222.613 245.949)" stroke-width="2" stroke="#004d9d" stroke-linecap="round" stroke-linejoin="bevel" fill="#fff"/>
    </g>
    <rect id="長方形_153" data-name="長方形 153" width="28.115" height="19.666" transform="translate(235.935 287.662)" fill="#fff"/>
  </g>
</svg>
