<svg xmlns="http://www.w3.org/2000/svg" width="134.429" height="135.022" viewBox="0 0 134.429 135.022">
  <g id="グループ_281" data-name="グループ 281" transform="translate(-575.7 -2316)">
    <g id="グループ_261" data-name="グループ 261" transform="translate(428.879 2277.656)">
      <path id="パス_39" data-name="パス 39" d="M208.972,92.035c-.059-1.865-.811-7.276-2.295-8.407a13.979,13.979,0,1,1,16.208,0,5.785,5.785,0,0,0-2.438,4.734l-.116,4.225" fill="#fbbe46"/>
      <path id="パス_41" data-name="パス 41" d="M208.972,91.826V96.7a1.961,1.961,0,0,0,1.912,2.008H218.3A1.961,1.961,0,0,0,220.3,96.8q0-.048,0-.1V91.826Z" fill="#2e4757"/>
      <g id="グループ_156" data-name="グループ 156">
        <path id="パス_42" data-name="パス 42" d="M220.588,91.252H208.972a.981.981,0,0,0-1,.956.4.4,0,0,0,0,.049h0a.981.981,0,0,0,.956,1h11.664s.991-.415,1-.957v-.047h0a.981.981,0,0,0-.956-1.005Z" fill="#24394b"/>
        <path id="パス_43" data-name="パス 43" d="M220.588,94.695H208.972a.981.981,0,0,0-1,.956.382.382,0,0,0,0,.048h0a.979.979,0,0,0,.956,1h11.664a.979.979,0,0,0,1-.956V95.7h0a.981.981,0,0,0-.956-1Z" fill="#24394b"/>
      </g>
      <path id="パス_51" data-name="パス 51" d="M211.984,80.474l1.434-6.741h-3.3l7.315-8.32L216,72.155h3.3Z" fill="#fff"/>
    </g>
    <g id="グループ_262" data-name="グループ 262" transform="translate(428.879 2279.656)">
      <path id="パス_143" data-name="パス 143" d="M206.135,55.327l-8.342-11.32,4.928-1.514Z" fill="#fbbe46"/>
      <path id="パス_144" data-name="パス 144" d="M224.041,55.987l7.442-12.462L225.989,41.9Z" fill="#fbbe46"/>
      <path id="パス_145" data-name="パス 145" d="M214.885,51.07l-2.383-14.3,5.053-.43Z" fill="#fbbe46"/>
    </g>
    <g id="グループ_266" data-name="グループ 266" transform="translate(440.493 2280.997)">
      <path id="パス_147" data-name="パス 147" d="M203.15,115.647c-2.357-1.619-7.028,3.549-11.431,9.687a24.256,24.256,0,1,0-34.964,10.173c-.4.811-.831,1.69-1.274,2.612-4.96-8.229-14.946-23.617-18.786-20.978-3.648,2.506,11.113,21.55,15.825,27.451-4.153,9.565-7.94,20.8-4.787,24.433h43.127s6.693-.008-3.912-25.455C191.168,138.312,206.9,118.226,203.15,115.647Zm-19.906,19.547a24.37,24.37,0,0,0,4.293-3.674c-1.3,2.018-2.472,3.934-3.436,5.54C183.824,136.448,183.54,135.829,183.245,135.194Z" fill="#004d9d" stroke="#fff" stroke-linecap="round" stroke-linejoin="bevel" stroke-width="2"/>
      <g id="グループ_265" data-name="グループ 265" transform="translate(146.03 91.896)">
        <circle id="楕円形_160" data-name="楕円形 160" cx="23.892" cy="23.892" r="23.892" transform="translate(0)" stroke-width="2" stroke="#fff" stroke-linecap="round" stroke-linejoin="bevel" fill="#004d9d"/>
      </g>
      <rect id="長方形_151" data-name="長方形 151" width="24.738" height="17.304" transform="translate(157.752 128.599)" fill="#004d9d"/>
    </g>
    <g id="グループ_267" data-name="グループ 267" transform="translate(505.493 2280.997)">
      <path id="パス_147-2" data-name="パス 147" d="M203.15,115.647c-2.357-1.619-7.028,3.549-11.431,9.687a24.256,24.256,0,1,0-34.964,10.173c-.4.811-.831,1.69-1.274,2.612-4.96-8.229-14.946-23.617-18.786-20.978-3.648,2.506,11.113,21.55,15.825,27.451-4.153,9.565-7.94,20.8-4.787,24.433h43.127s6.693-.008-3.912-25.455C191.168,138.312,206.9,118.226,203.15,115.647Zm-19.906,19.547a24.37,24.37,0,0,0,4.293-3.674c-1.3,2.018-2.472,3.934-3.436,5.54C183.824,136.448,183.54,135.829,183.245,135.194Z" fill="#004d9d" stroke="#fff" stroke-linecap="round" stroke-linejoin="bevel" stroke-width="2"/>
      <g id="グループ_265-2" data-name="グループ 265" transform="translate(146.03 91.896)">
        <circle id="楕円形_160-2" data-name="楕円形 160" cx="23.892" cy="23.892" r="23.892" transform="translate(0)" stroke-width="2" stroke="#fff" stroke-linecap="round" stroke-linejoin="bevel" fill="#004d9d"/>
      </g>
      <rect id="長方形_151-2" data-name="長方形 151" width="24.738" height="17.304" transform="translate(157.752 128.599)" fill="#004d9d"/>
    </g>
  </g>
</svg>
