<svg xmlns="http://www.w3.org/2000/svg" width="138.914" height="106.475" viewBox="0 0 138.914 106.475">
  <g id="グループ_245" data-name="グループ 245" transform="translate(-258.93 -256.046)">
    <path id="パス_67" data-name="パス 67" d="M391.736,305.973a25.324,25.324,0,1,0-38.9,21.372c-5.074,10.228-13.873,29.864-9.421,35h45.033s8.452-.005-7.952-35.327A25.3,25.3,0,0,0,391.736,305.973Z" fill="#004d9d"/>
    <path id="パス_68" data-name="パス 68" d="M322.7,305.973a25.324,25.324,0,1,0-38.9,21.372c-5.074,10.228-13.873,29.864-9.421,35h45.032s8.453-.005-7.951-35.327A25.3,25.3,0,0,0,322.7,305.973Z" fill="#004d9d"/>
    <path id="パス_69" data-name="パス 69" d="M310.248,330.4s22.913,28.125,17.284,31.9c-4.681,3.141-22.32-28.768-22.32-28.768Z" fill="#004d9d"/>
    <path id="パス_70" data-name="パス 70" d="M294.369,338.014s-30.9-25.878-35.186-19.681c-3.56,5.153,31.627,25.229,31.627,25.229Z" fill="#004d9d"/>
    <path id="パス_71" data-name="パス 71" d="M379.67,328.893s22.913,28.126,17.284,31.9c-4.681,3.142-22.32-28.768-22.32-28.768Z" fill="#004d9d"/>
    <g id="グループ_243" data-name="グループ 243">
      <path id="パス_72" data-name="パス 72" d="M292.722,274.7,284.5,263.645l4.823-1.505Z" fill="#004d9d"/>
      <path id="パス_73" data-name="パス 73" d="M310.272,275.268l7.237-12.246-5.391-1.57Z" fill="#004d9d"/>
      <path id="パス_74" data-name="パス 74" d="M301.278,270.49l-2.4-14,4.949-.444Z" fill="#004d9d"/>
    </g>
    <g id="グループ_244" data-name="グループ 244">
      <path id="パス_75" data-name="パス 75" d="M342.285,281.8l-11.279-7.917,4.107-2.943Z" fill="#004d9d"/>
      <path id="パス_76" data-name="パス 76" d="M359.128,276.837l3.03-13.9-5.612.2Z" fill="#004d9d"/>
      <path id="パス_77" data-name="パス 77" d="M349.088,275.122l-6.67-12.539,4.56-1.975Z" fill="#004d9d"/>
    </g>
  </g>
</svg>
