<svg xmlns="http://www.w3.org/2000/svg" width="138.914" height="106.475" viewBox="0 0 138.914 106.475">
  <g id="グループ_249" data-name="グループ 249" transform="translate(-258.93 -256.046)">
    <g id="グループ_246" data-name="グループ 246">
      <path id="パス_78" data-name="パス 78" d="M391.736,305.973a25.324,25.324,0,1,0-38.9,21.372c-5.074,10.228-13.873,29.864-9.421,35h45.033s8.452-.005-7.952-35.327A25.3,25.3,0,0,0,391.736,305.973Z" fill="#fff"/>
      <path id="パス_79" data-name="パス 79" d="M322.7,305.973a25.324,25.324,0,1,0-38.9,21.372c-5.074,10.228-13.873,29.864-9.421,35h45.032s8.453-.005-7.951-35.327A25.3,25.3,0,0,0,322.7,305.973Z" fill="#fff"/>
      <path id="パス_80" data-name="パス 80" d="M310.248,330.4s22.913,28.125,17.284,31.9c-4.681,3.141-22.32-28.768-22.32-28.768Z" fill="#fff"/>
      <path id="パス_81" data-name="パス 81" d="M294.369,338.014s-30.9-25.878-35.186-19.681c-3.56,5.153,31.627,25.229,31.627,25.229Z" fill="#fff"/>
      <path id="パス_82" data-name="パス 82" d="M379.67,328.893s22.913,28.126,17.284,31.9c-4.681,3.142-22.32-28.768-22.32-28.768Z" fill="#fff"/>
    </g>
    <g id="グループ_247" data-name="グループ 247">
      <path id="パス_83" data-name="パス 83" d="M292.722,274.7,284.5,263.645l4.823-1.505Z" fill="#fbbe46"/>
      <path id="パス_84" data-name="パス 84" d="M310.272,275.268l7.237-12.246-5.391-1.57Z" fill="#fbbe46"/>
      <path id="パス_85" data-name="パス 85" d="M301.278,270.49l-2.4-14,4.949-.444Z" fill="#fbbe46"/>
    </g>
    <g id="グループ_248" data-name="グループ 248">
      <path id="パス_86" data-name="パス 86" d="M342.285,281.8l-11.279-7.917,4.107-2.943Z" fill="#fbbe46"/>
      <path id="パス_87" data-name="パス 87" d="M359.128,276.837l3.03-13.9-5.612.2Z" fill="#fbbe46"/>
      <path id="パス_88" data-name="パス 88" d="M349.088,275.122l-6.67-12.539,4.56-1.975Z" fill="#fbbe46"/>
    </g>
  </g>
</svg>
